<svg xmlns="http://www.w3.org/2000/svg" xmlns:xlink="http://www.w3.org/1999/xlink" version="1.1" id="Layer_1" x="0px" y="0px" viewBox="0 0 1546.42 1550" style="enable-background:new 0 0 1546.42 1550;" xml:space="preserve">
<path d="M1523.56,1455.99l-393.8-393.81c43.06-49.91,77.87-105.92,103.53-166.61c33.04-78.11,49.8-161.07,49.8-246.56  c0-81.81-15.34-161.3-45.62-236.45l0.09-0.04l-3.78-8.93c-0.16-0.38-0.32-0.76-0.48-1.14l-4.26-10.07l-0.09,0.04  c-31.65-71.41-75.81-135.72-131.38-191.28c-41.52-41.52-88.4-76.99-139.34-105.4c-20.22-11.28-41.07-21.48-61.98-30.32  c-20.69-8.75-42.28-16.53-64.18-23.11c-58.86-17.7-120.22-26.68-182.38-26.68c-85.48,0-168.44,16.75-246.56,49.79  c-75.43,31.9-143.16,77.57-201.32,135.72C143.66,259.3,97.99,327.03,66.09,402.45C33.05,480.57,16.3,563.53,16.3,649.01  c0,83.28,15.96,164.29,47.42,240.74l1.25,3.07c0.37,0.92,0.74,1.84,1.13,2.74c17.97,42.5,40.58,83,67.2,120.38  c20.39,28.63,43.44,55.86,68.52,80.94c58.16,58.16,125.89,103.82,201.32,135.72c78.12,33.04,161.07,49.8,246.56,49.8  c85.49,0,168.44-16.75,246.56-49.8c60.1-25.42,115.61-59.8,165.15-102.28l393.91,393.91c9.11,9.12,21.23,14.14,34.13,14.14  c12.89,0,25.01-5.02,34.13-14.14c9.12-9.12,14.14-21.24,14.14-34.13C1537.7,1477.22,1532.68,1465.1,1523.56,1455.99z   M1195.71,649.01c0,145.84-56.8,282.96-159.92,386.09c-103.14,103.13-240.26,159.92-386.09,159.92  c-140.24,0-273.48-53.02-375.15-149.3c-3.99-3.77-7.57-7.25-10.94-10.62c-37.41-37.41-69.07-79.72-94.1-125.73  c-43.06-79.18-65.83-169.21-65.83-260.36c0-145.85,56.8-282.96,159.92-386.09C366.73,159.79,503.85,103,649.69,103  c68.11,0,134.45,12.3,197.17,36.55c48.84,18.88,94.74,44.84,136.44,77.14c18.39,14.25,36.05,29.8,52.48,46.23  C1138.91,366.05,1195.71,503.17,1195.71,649.01z"/>
</svg>